<?xml version="1.0" encoding="us-ascii" standalone="no"?><svg xmlns="http://www.w3.org/2000/svg" xmlns:xlink="http://www.w3.org/1999/xlink" contentStyleType="text/css" height="1773px" preserveAspectRatio="none" style="width:1014px;height:1773px;background:#FFFFFF;" version="1.1" viewBox="0 0 1014 1773" width="1014px" zoomAndPan="magnify"><defs/><g><line style="stroke:#181818;stroke-width:0.5;stroke-dasharray:5.0,5.0;" x1="22" x2="22" y1="81.2969" y2="1692.9375"/><line style="stroke:#181818;stroke-width:0.5;stroke-dasharray:5.0,5.0;" x1="66" x2="66" y1="81.2969" y2="1692.9375"/><line style="stroke:#181818;stroke-width:0.5;stroke-dasharray:5.0,5.0;" x1="163" x2="163" y1="81.2969" y2="1692.9375"/><line style="stroke:#181818;stroke-width:0.5;stroke-dasharray:5.0,5.0;" x1="300" x2="300" y1="81.2969" y2="1692.9375"/><line style="stroke:#181818;stroke-width:0.5;stroke-dasharray:5.0,5.0;" x1="509.5" x2="509.5" y1="81.2969" y2="1692.9375"/><line style="stroke:#181818;stroke-width:0.5;stroke-dasharray:5.0,5.0;" x1="859.5" x2="859.5" y1="81.2969" y2="1692.9375"/><line style="stroke:#181818;stroke-width:0.5;stroke-dasharray:5.0,5.0;" x1="965.5" x2="965.5" y1="81.2969" y2="1692.9375"/><text fill="#000000" font-family="sans-serif" font-size="14" lengthAdjust="spacing" textLength="28" x="5" y="77.9951">&#29992;&#25143;</text><ellipse cx="22" cy="13.5" fill="#E2E2F0" rx="8" ry="8" style="stroke:#181818;stroke-width:0.5;"/><path d="M22,21.5 L22,48.5 M9,29.5 L35,29.5 M22,48.5 L9,63.5 M22,48.5 L35,63.5 " fill="none" style="stroke:#181818;stroke-width:0.5;"/><text fill="#000000" font-family="sans-serif" font-size="14" lengthAdjust="spacing" textLength="28" x="5" y="1704.9326">&#29992;&#25143;</text><ellipse cx="22" cy="1716.7344" fill="#E2E2F0" rx="8" ry="8" style="stroke:#181818;stroke-width:0.5;"/><path d="M22,1724.7344 L22,1751.7344 M9,1732.7344 L35,1732.7344 M22,1751.7344 L9,1766.7344 M22,1751.7344 L35,1766.7344 " fill="none" style="stroke:#181818;stroke-width:0.5;"/><text fill="#000000" font-family="sans-serif" font-size="14" lengthAdjust="spacing" textLength="28" x="49" y="77.9951">&#24179;&#21488;</text><ellipse cx="66" cy="13.5" fill="#E2E2F0" rx="8" ry="8" style="stroke:#181818;stroke-width:0.5;"/><path d="M66,21.5 L66,48.5 M53,29.5 L79,29.5 M66,48.5 L53,63.5 M66,48.5 L79,63.5 " fill="none" style="stroke:#181818;stroke-width:0.5;"/><text fill="#000000" font-family="sans-serif" font-size="14" lengthAdjust="spacing" textLength="28" x="49" y="1704.9326">&#24179;&#21488;</text><ellipse cx="66" cy="1716.7344" fill="#E2E2F0" rx="8" ry="8" style="stroke:#181818;stroke-width:0.5;"/><path d="M66,1724.7344 L66,1751.7344 M53,1732.7344 L79,1732.7344 M66,1751.7344 L53,1766.7344 M66,1751.7344 L79,1766.7344 " fill="none" style="stroke:#181818;stroke-width:0.5;"/><rect fill="#E2E2F0" height="30.2969" rx="2.5" ry="2.5" style="stroke:#181818;stroke-width:0.5;" width="110" x="108" y="50"/><text fill="#000000" font-family="sans-serif" font-size="14" lengthAdjust="spacing" textLength="96" x="115" y="69.9951">nft-turbo-user</text><rect fill="#E2E2F0" height="30.2969" rx="2.5" ry="2.5" style="stroke:#181818;stroke-width:0.5;" width="110" x="108" y="1691.9375"/><text fill="#000000" font-family="sans-serif" font-size="14" lengthAdjust="spacing" textLength="96" x="115" y="1711.9326">nft-turbo-user</text><rect fill="#E2E2F0" height="30.2969" rx="2.5" ry="2.5" style="stroke:#181818;stroke-width:0.5;" width="145" x="228" y="50"/><text fill="#000000" font-family="sans-serif" font-size="14" lengthAdjust="spacing" textLength="131" x="235" y="69.9951">nft-turbo-collection</text><rect fill="#E2E2F0" height="30.2969" rx="2.5" ry="2.5" style="stroke:#181818;stroke-width:0.5;" width="145" x="228" y="1691.9375"/><text fill="#000000" font-family="sans-serif" font-size="14" lengthAdjust="spacing" textLength="131" x="235" y="1711.9326">nft-turbo-collection</text><rect fill="#E2E2F0" height="30.2969" rx="2.5" ry="2.5" style="stroke:#181818;stroke-width:0.5;" width="116" x="451.5" y="50"/><text fill="#000000" font-family="sans-serif" font-size="14" lengthAdjust="spacing" textLength="102" x="458.5" y="69.9951">nft-turbo-chain</text><rect fill="#E2E2F0" height="30.2969" rx="2.5" ry="2.5" style="stroke:#181818;stroke-width:0.5;" width="116" x="451.5" y="1691.9375"/><text fill="#000000" font-family="sans-serif" font-size="14" lengthAdjust="spacing" textLength="102" x="458.5" y="1711.9326">nft-turbo-chain</text><rect fill="#E2E2F0" height="30.2969" rx="2.5" ry="2.5" style="stroke:#181818;stroke-width:0.5;" width="120" x="799.5" y="50"/><text fill="#000000" font-family="sans-serif" font-size="14" lengthAdjust="spacing" textLength="106" x="806.5" y="69.9951">avata&#65288;&#25991;&#26124;&#38142;&#65289;</text><rect fill="#E2E2F0" height="30.2969" rx="2.5" ry="2.5" style="stroke:#181818;stroke-width:0.5;" width="120" x="799.5" y="1691.9375"/><text fill="#000000" font-family="sans-serif" font-size="14" lengthAdjust="spacing" textLength="106" x="806.5" y="1711.9326">avata&#65288;&#25991;&#26124;&#38142;&#65289;</text><rect fill="#E2E2F0" height="30.2969" rx="2.5" ry="2.5" style="stroke:#181818;stroke-width:0.5;" width="73" x="929.5" y="50"/><text fill="#000000" font-family="sans-serif" font-size="14" lengthAdjust="spacing" textLength="59" x="936.5" y="69.9951">roketMQ</text><rect fill="#E2E2F0" height="30.2969" rx="2.5" ry="2.5" style="stroke:#181818;stroke-width:0.5;" width="73" x="929.5" y="1691.9375"/><text fill="#000000" font-family="sans-serif" font-size="14" lengthAdjust="spacing" textLength="59" x="936.5" y="1711.9326">roketMQ</text><rect fill="#EEEEEE" height="3" style="stroke:#EEEEEE;stroke-width:1.0;" width="1007.5" x="0" y="111.8633"/><line style="stroke:#000000;stroke-width:1.0;" x1="0" x2="1007.5" y1="111.8633" y2="111.8633"/><line style="stroke:#000000;stroke-width:1.0;" x1="0" x2="1007.5" y1="114.8633" y2="114.8633"/><rect fill="#EEEEEE" height="23.1328" style="stroke:#000000;stroke-width:2.0;" width="112" x="447.75" y="101.2969"/><text fill="#000000" font-family="sans-serif" font-size="13" font-weight="bold" lengthAdjust="spacing" textLength="98" x="453.75" y="117.3638">&#29992;&#25143;&#38142;&#22320;&#22336;&#21019;&#24314;</text><polygon fill="#181818" points="151,151.5625,161,155.5625,151,159.5625,155,155.5625" style="stroke:#181818;stroke-width:1.0;"/><line style="stroke:#181818;stroke-width:1.0;" x1="22" x2="157" y1="155.5625" y2="155.5625"/><text fill="#000000" font-family="sans-serif" font-size="13" lengthAdjust="spacing" textLength="117" x="29" y="150.4966">&#29992;&#25143;&#30003;&#35831;&#21019;&#24314;&#38142;&#36134;&#25143;</text><polygon fill="#181818" points="497.5,180.6953,507.5,184.6953,497.5,188.6953,501.5,184.6953" style="stroke:#181818;stroke-width:1.0;"/><line style="stroke:#181818;stroke-width:1.0;" x1="163" x2="503.5" y1="184.6953" y2="184.6953"/><text fill="#000000" font-family="sans-serif" font-size="13" lengthAdjust="spacing" textLength="91" x="170" y="179.6294">&#29992;&#25143;&#21019;&#24314;&#38142;&#36134;&#25143;</text><polygon fill="#181818" points="847.5,209.8281,857.5,213.8281,847.5,217.8281,851.5,213.8281" style="stroke:#181818;stroke-width:1.0;"/><line style="stroke:#181818;stroke-width:1.0;" x1="509.5" x2="853.5" y1="213.8281" y2="213.8281"/><text fill="#000000" font-family="sans-serif" font-size="13" lengthAdjust="spacing" textLength="224" x="516.5" y="208.7622">&#36890;&#36807;post&#35843;&#29992;avata &#36827;&#34892;&#65306;&#38142;&#36134;&#25143;&#21019;&#24314;</text><polygon fill="#181818" points="520.5,238.9609,510.5,242.9609,520.5,246.9609,516.5,242.9609" style="stroke:#181818;stroke-width:1.0;"/><line style="stroke:#181818;stroke-width:1.0;" x1="514.5" x2="858.5" y1="242.9609" y2="242.9609"/><text fill="#000000" font-family="sans-serif" font-size="13" lengthAdjust="spacing" textLength="117" x="526.5" y="237.895">&#21516;&#27493;&#36820;&#22238;&#38142;&#36134;&#25143;&#22320;&#22336;</text><line style="stroke:#181818;stroke-width:1.0;" x1="509.5" x2="551.5" y1="272.0938" y2="272.0938"/><line style="stroke:#181818;stroke-width:1.0;" x1="551.5" x2="551.5" y1="272.0938" y2="285.0938"/><line style="stroke:#181818;stroke-width:1.0;" x1="510.5" x2="551.5" y1="285.0938" y2="285.0938"/><polygon fill="#181818" points="520.5,281.0938,510.5,285.0938,520.5,289.0938,516.5,285.0938" style="stroke:#181818;stroke-width:1.0;"/><text fill="#000000" font-family="sans-serif" font-size="13" lengthAdjust="spacing" textLength="152" x="516.5" y="267.0278">&#38142;&#36134;&#25143;&#22320;&#22336;&#26356;&#26032;&#21040;users&#34920;</text><rect fill="#EEEEEE" height="3" style="stroke:#EEEEEE;stroke-width:1.0;" width="1007.5" x="0" y="313.6602"/><line style="stroke:#000000;stroke-width:1.0;" x1="0" x2="1007.5" y1="313.6602" y2="313.6602"/><line style="stroke:#000000;stroke-width:1.0;" x1="0" x2="1007.5" y1="316.6602" y2="316.6602"/><rect fill="#EEEEEE" height="23.1328" style="stroke:#000000;stroke-width:2.0;" width="98" x="454.75" y="303.0938"/><text fill="#000000" font-family="sans-serif" font-size="13" font-weight="bold" lengthAdjust="spacing" textLength="84" x="460.75" y="319.1606">&#24179;&#21488;&#19978;&#38142;&#34255;&#21697;</text><polygon fill="#181818" points="288.5,353.3594,298.5,357.3594,288.5,361.3594,292.5,357.3594" style="stroke:#181818;stroke-width:1.0;"/><line style="stroke:#181818;stroke-width:1.0;" x1="66" x2="294.5" y1="357.3594" y2="357.3594"/><text fill="#000000" font-family="sans-serif" font-size="13" lengthAdjust="spacing" textLength="130" x="73" y="352.2935">&#24179;&#21488;&#36827;&#34892;&#34255;&#21697;&#19978;&#38142;&#25805;&#20316;</text><polygon fill="#181818" points="497.5,382.4922,507.5,386.4922,497.5,390.4922,501.5,386.4922" style="stroke:#181818;stroke-width:1.0;"/><line style="stroke:#181818;stroke-width:1.0;" x1="300.5" x2="503.5" y1="386.4922" y2="386.4922"/><text fill="#000000" font-family="sans-serif" font-size="13" lengthAdjust="spacing" textLength="104" x="307.5" y="381.4263">&#36827;&#34892;&#34255;&#21697;&#19978;&#38142;&#25805;&#20316;</text><polygon fill="#181818" points="847.5,411.625,857.5,415.625,847.5,419.625,851.5,415.625" style="stroke:#181818;stroke-width:1.0;"/><line style="stroke:#181818;stroke-width:1.0;" x1="509.5" x2="853.5" y1="415.625" y2="415.625"/><text fill="#000000" font-family="sans-serif" font-size="13" lengthAdjust="spacing" textLength="326" x="516.5" y="410.5591">&#21019;&#24314;&#25805;&#20316;&#35760;&#24405;&#65292;&#36890;&#36807;post&#35843;&#29992;avata &#36827;&#34892;&#65306;NFT&#31867;&#21035;&#21019;&#24314;</text><polygon fill="#181818" points="954,440.7578,964,444.7578,954,448.7578,958,444.7578" style="stroke:#181818;stroke-width:1.0;"/><line style="stroke:#181818;stroke-width:1.0;" x1="509.5" x2="960" y1="444.7578" y2="444.7578"/><text fill="#000000" font-family="sans-serif" font-size="13" lengthAdjust="spacing" textLength="169" x="516.5" y="439.6919">&#21457;&#36865;&#34255;&#21697;&#19978;&#38142;&#25805;&#20316;&#25104;&#21151;&#30340;&#28040;&#24687;</text><polygon fill="#181818" points="311.5,469.8906,301.5,473.8906,311.5,477.8906,307.5,473.8906" style="stroke:#181818;stroke-width:1.0;"/><line style="stroke:#181818;stroke-width:1.0;" x1="305.5" x2="965" y1="473.8906" y2="473.8906"/><text fill="#000000" font-family="sans-serif" font-size="13" lengthAdjust="spacing" textLength="169" x="317.5" y="468.8247">&#25509;&#25910;&#34255;&#21697;&#19978;&#38142;&#25805;&#20316;&#25104;&#21151;&#30340;&#28040;&#24687;</text><polygon fill="#181818" points="497.5,499.0234,507.5,503.0234,497.5,507.0234,501.5,503.0234" style="stroke:#181818;stroke-width:1.0;"/><line style="stroke:#181818;stroke-width:1.0;" x1="300.5" x2="503.5" y1="503.0234" y2="503.0234"/><text fill="#000000" font-family="sans-serif" font-size="13" lengthAdjust="spacing" textLength="104" x="307.5" y="497.9575">&#26597;&#35810;&#19978;&#38142;&#20132;&#26131;&#32467;&#26524;</text><polygon fill="#181818" points="847.5,528.1563,857.5,532.1563,847.5,536.1563,851.5,532.1563" style="stroke:#181818;stroke-width:1.0;"/><line style="stroke:#181818;stroke-width:1.0;" x1="509.5" x2="853.5" y1="532.1563" y2="532.1563"/><text fill="#000000" font-family="sans-serif" font-size="13" lengthAdjust="spacing" textLength="256" x="516.5" y="527.0903">&#36890;&#36807;get&#35843;&#29992;avata &#36827;&#34892;&#65306;&#26597;&#35810;&#19978;&#38142;&#20132;&#26131;&#32467;&#26524;</text><polygon fill="#181818" points="520.5,557.2891,510.5,561.2891,520.5,565.2891,516.5,561.2891" style="stroke:#181818;stroke-width:1.0;"/><line style="stroke:#181818;stroke-width:1.0;" x1="514.5" x2="858.5" y1="561.2891" y2="561.2891"/><text fill="#000000" font-family="sans-serif" font-size="13" lengthAdjust="spacing" textLength="130" x="526.5" y="556.2231">&#21516;&#27493;&#36820;&#22238;&#19978;&#38142;&#20132;&#26131;&#32467;&#26524;</text><polygon fill="#181818" points="311.5,586.4219,301.5,590.4219,311.5,594.4219,307.5,590.4219" style="stroke:#181818;stroke-width:1.0;"/><line style="stroke:#181818;stroke-width:1.0;" x1="305.5" x2="508.5" y1="590.4219" y2="590.4219"/><text fill="#000000" font-family="sans-serif" font-size="13" lengthAdjust="spacing" textLength="130" x="317.5" y="585.356">&#21516;&#27493;&#36820;&#22238;&#19978;&#38142;&#20132;&#26131;&#32467;&#26524;</text><line style="stroke:#181818;stroke-width:1.0;" x1="300.5" x2="342.5" y1="619.5547" y2="619.5547"/><line style="stroke:#181818;stroke-width:1.0;" x1="342.5" x2="342.5" y1="619.5547" y2="632.5547"/><line style="stroke:#181818;stroke-width:1.0;" x1="301.5" x2="342.5" y1="632.5547" y2="632.5547"/><polygon fill="#181818" points="311.5,628.5547,301.5,632.5547,311.5,636.5547,307.5,632.5547" style="stroke:#181818;stroke-width:1.0;"/><text fill="#000000" font-family="sans-serif" font-size="13" lengthAdjust="spacing" textLength="169" x="307.5" y="614.4888">&#25226;&#19978;&#38142;&#20132;&#26131;&#32467;&#26524;&#26356;&#26032;&#21040;&#34255;&#21697;&#34920;</text><rect fill="#EEEEEE" height="3" style="stroke:#EEEEEE;stroke-width:1.0;" width="1007.5" x="0" y="661.1211"/><line style="stroke:#000000;stroke-width:1.0;" x1="0" x2="1007.5" y1="661.1211" y2="661.1211"/><line style="stroke:#000000;stroke-width:1.0;" x1="0" x2="1007.5" y1="664.1211" y2="664.1211"/><rect fill="#EEEEEE" height="23.1328" style="stroke:#000000;stroke-width:2.0;" width="140" x="433.75" y="650.5547"/><text fill="#000000" font-family="sans-serif" font-size="13" font-weight="bold" lengthAdjust="spacing" textLength="126" x="439.75" y="666.6216">&#29992;&#25143;&#19979;&#21333;&#65292;&#38136;&#36896;&#34255;&#21697;</text><polygon fill="#181818" points="288.5,700.8203,298.5,704.8203,288.5,708.8203,292.5,704.8203" style="stroke:#181818;stroke-width:1.0;"/><line style="stroke:#181818;stroke-width:1.0;" x1="22" x2="294.5" y1="704.8203" y2="704.8203"/><text fill="#000000" font-family="sans-serif" font-size="13" lengthAdjust="spacing" textLength="195" x="29" y="699.7544">&#29992;&#25143;&#36827;&#34892;&#19979;&#21333;&#65292;&#35843;&#29992;&#34255;&#21697;&#38136;&#36896;&#25509;&#21475;</text><polygon fill="#181818" points="497.5,729.9531,507.5,733.9531,497.5,737.9531,501.5,733.9531" style="stroke:#181818;stroke-width:1.0;"/><line style="stroke:#181818;stroke-width:1.0;" x1="300.5" x2="503.5" y1="733.9531" y2="733.9531"/><text fill="#000000" font-family="sans-serif" font-size="13" lengthAdjust="spacing" textLength="104" x="307.5" y="728.8872">&#35843;&#29992;&#34255;&#21697;&#38136;&#36896;&#25509;&#21475;</text><polygon fill="#181818" points="847.5,759.0859,857.5,763.0859,847.5,767.0859,851.5,763.0859" style="stroke:#181818;stroke-width:1.0;"/><line style="stroke:#181818;stroke-width:1.0;" x1="509.5" x2="853.5" y1="763.0859" y2="763.0859"/><text fill="#000000" font-family="sans-serif" font-size="13" lengthAdjust="spacing" textLength="300" x="516.5" y="758.02">&#21019;&#24314;&#25805;&#20316;&#35760;&#24405;&#65292;&#36890;&#36807;post&#35843;&#29992;avata &#36827;&#34892;&#65306;&#21457;&#34892;NFT</text><polygon fill="#181818" points="954,788.2188,964,792.2188,954,796.2188,958,792.2188" style="stroke:#181818;stroke-width:1.0;"/><line style="stroke:#181818;stroke-width:1.0;" x1="509.5" x2="960" y1="792.2188" y2="792.2188"/><text fill="#000000" font-family="sans-serif" font-size="13" lengthAdjust="spacing" textLength="169" x="516.5" y="787.1528">&#21457;&#36865;&#34255;&#21697;&#38136;&#36896;&#25805;&#20316;&#25104;&#21151;&#30340;&#28040;&#24687;</text><polygon fill="#181818" points="311.5,817.3516,301.5,821.3516,311.5,825.3516,307.5,821.3516" style="stroke:#181818;stroke-width:1.0;"/><line style="stroke:#181818;stroke-width:1.0;" x1="305.5" x2="965" y1="821.3516" y2="821.3516"/><text fill="#000000" font-family="sans-serif" font-size="13" lengthAdjust="spacing" textLength="169" x="317.5" y="816.2856">&#25509;&#25910;&#34255;&#21697;&#38136;&#36896;&#25805;&#20316;&#25104;&#21151;&#30340;&#28040;&#24687;</text><polygon fill="#181818" points="497.5,846.4844,507.5,850.4844,497.5,854.4844,501.5,850.4844" style="stroke:#181818;stroke-width:1.0;"/><line style="stroke:#181818;stroke-width:1.0;" x1="300.5" x2="503.5" y1="850.4844" y2="850.4844"/><text fill="#000000" font-family="sans-serif" font-size="13" lengthAdjust="spacing" textLength="104" x="307.5" y="845.4185">&#26597;&#35810;&#19978;&#38142;&#20132;&#26131;&#32467;&#26524;</text><polygon fill="#181818" points="847.5,875.6172,857.5,879.6172,847.5,883.6172,851.5,879.6172" style="stroke:#181818;stroke-width:1.0;"/><line style="stroke:#181818;stroke-width:1.0;" x1="509.5" x2="853.5" y1="879.6172" y2="879.6172"/><text fill="#000000" font-family="sans-serif" font-size="13" lengthAdjust="spacing" textLength="256" x="516.5" y="874.5513">&#36890;&#36807;get&#35843;&#29992;avata &#36827;&#34892;&#65306;&#26597;&#35810;&#19978;&#38142;&#20132;&#26131;&#32467;&#26524;</text><polygon fill="#181818" points="520.5,904.75,510.5,908.75,520.5,912.75,516.5,908.75" style="stroke:#181818;stroke-width:1.0;"/><line style="stroke:#181818;stroke-width:1.0;" x1="514.5" x2="858.5" y1="908.75" y2="908.75"/><text fill="#000000" font-family="sans-serif" font-size="13" lengthAdjust="spacing" textLength="130" x="526.5" y="903.6841">&#21516;&#27493;&#36820;&#22238;&#19978;&#38142;&#20132;&#26131;&#32467;&#26524;</text><polygon fill="#181818" points="311.5,933.8828,301.5,937.8828,311.5,941.8828,307.5,937.8828" style="stroke:#181818;stroke-width:1.0;"/><line style="stroke:#181818;stroke-width:1.0;" x1="305.5" x2="508.5" y1="937.8828" y2="937.8828"/><text fill="#000000" font-family="sans-serif" font-size="13" lengthAdjust="spacing" textLength="130" x="317.5" y="932.8169">&#21516;&#27493;&#36820;&#22238;&#19978;&#38142;&#20132;&#26131;&#32467;&#26524;</text><line style="stroke:#181818;stroke-width:1.0;" x1="300.5" x2="342.5" y1="967.0156" y2="967.0156"/><line style="stroke:#181818;stroke-width:1.0;" x1="342.5" x2="342.5" y1="967.0156" y2="980.0156"/><line style="stroke:#181818;stroke-width:1.0;" x1="301.5" x2="342.5" y1="980.0156" y2="980.0156"/><polygon fill="#181818" points="311.5,976.0156,301.5,980.0156,311.5,984.0156,307.5,980.0156" style="stroke:#181818;stroke-width:1.0;"/><text fill="#000000" font-family="sans-serif" font-size="13" lengthAdjust="spacing" textLength="195" x="307.5" y="961.9497">&#25226;&#19978;&#38142;&#20132;&#26131;&#32467;&#26524;&#26356;&#26032;&#21040;&#34255;&#21697;&#25345;&#26377;&#34920;</text><rect fill="#EEEEEE" height="3" style="stroke:#EEEEEE;stroke-width:1.0;" width="1007.5" x="0" y="1008.582"/><line style="stroke:#000000;stroke-width:1.0;" x1="0" x2="1007.5" y1="1008.582" y2="1008.582"/><line style="stroke:#000000;stroke-width:1.0;" x1="0" x2="1007.5" y1="1011.582" y2="1011.582"/><rect fill="#EEEEEE" height="23.1328" style="stroke:#000000;stroke-width:2.0;" width="98" x="454.75" y="998.0156"/><text fill="#000000" font-family="sans-serif" font-size="13" font-weight="bold" lengthAdjust="spacing" textLength="84" x="460.75" y="1014.0825">&#29992;&#25143;&#20132;&#26131;&#34255;&#21697;</text><polygon fill="#181818" points="288.5,1048.2813,298.5,1052.2813,288.5,1056.2813,292.5,1052.2813" style="stroke:#181818;stroke-width:1.0;"/><line style="stroke:#181818;stroke-width:1.0;" x1="22" x2="294.5" y1="1052.2813" y2="1052.2813"/><text fill="#000000" font-family="sans-serif" font-size="13" lengthAdjust="spacing" textLength="169" x="29" y="1047.2153">&#20108;&#32423;&#24066;&#22330;&#29992;&#25143;&#38388;&#34255;&#21697;&#20132;&#26131;&#25805;&#20316;</text><polygon fill="#181818" points="497.5,1077.4141,507.5,1081.4141,497.5,1085.4141,501.5,1081.4141" style="stroke:#181818;stroke-width:1.0;"/><line style="stroke:#181818;stroke-width:1.0;" x1="300.5" x2="503.5" y1="1081.4141" y2="1081.4141"/><text fill="#000000" font-family="sans-serif" font-size="13" lengthAdjust="spacing" textLength="104" x="307.5" y="1076.3481">&#35843;&#29992;&#34255;&#21697;&#20132;&#26131;&#25509;&#21475;</text><polygon fill="#181818" points="847.5,1106.5469,857.5,1110.5469,847.5,1114.5469,851.5,1110.5469" style="stroke:#181818;stroke-width:1.0;"/><line style="stroke:#181818;stroke-width:1.0;" x1="509.5" x2="853.5" y1="1110.5469" y2="1110.5469"/><text fill="#000000" font-family="sans-serif" font-size="13" lengthAdjust="spacing" textLength="300" x="516.5" y="1105.481">&#21019;&#24314;&#25805;&#20316;&#35760;&#24405;&#65292;&#36890;&#36807;post&#35843;&#29992;avata &#36827;&#34892;&#65306;&#36716;&#35753;NFT</text><polygon fill="#181818" points="954,1135.6797,964,1139.6797,954,1143.6797,958,1139.6797" style="stroke:#181818;stroke-width:1.0;"/><line style="stroke:#181818;stroke-width:1.0;" x1="509.5" x2="960" y1="1139.6797" y2="1139.6797"/><text fill="#000000" font-family="sans-serif" font-size="13" lengthAdjust="spacing" textLength="169" x="516.5" y="1134.6138">&#21457;&#36865;&#34255;&#21697;&#20132;&#26131;&#25805;&#20316;&#25104;&#21151;&#30340;&#28040;&#24687;</text><polygon fill="#181818" points="311.5,1164.8125,301.5,1168.8125,311.5,1172.8125,307.5,1168.8125" style="stroke:#181818;stroke-width:1.0;"/><line style="stroke:#181818;stroke-width:1.0;" x1="305.5" x2="965" y1="1168.8125" y2="1168.8125"/><text fill="#000000" font-family="sans-serif" font-size="13" lengthAdjust="spacing" textLength="169" x="317.5" y="1163.7466">&#25509;&#25910;&#34255;&#21697;&#20132;&#26131;&#25805;&#20316;&#25104;&#21151;&#30340;&#28040;&#24687;</text><polygon fill="#181818" points="497.5,1193.9453,507.5,1197.9453,497.5,1201.9453,501.5,1197.9453" style="stroke:#181818;stroke-width:1.0;"/><line style="stroke:#181818;stroke-width:1.0;" x1="300.5" x2="503.5" y1="1197.9453" y2="1197.9453"/><text fill="#000000" font-family="sans-serif" font-size="13" lengthAdjust="spacing" textLength="104" x="307.5" y="1192.8794">&#26597;&#35810;&#19978;&#38142;&#20132;&#26131;&#32467;&#26524;</text><polygon fill="#181818" points="847.5,1223.0781,857.5,1227.0781,847.5,1231.0781,851.5,1227.0781" style="stroke:#181818;stroke-width:1.0;"/><line style="stroke:#181818;stroke-width:1.0;" x1="509.5" x2="853.5" y1="1227.0781" y2="1227.0781"/><text fill="#000000" font-family="sans-serif" font-size="13" lengthAdjust="spacing" textLength="256" x="516.5" y="1222.0122">&#36890;&#36807;get&#35843;&#29992;avata &#36827;&#34892;&#65306;&#26597;&#35810;&#19978;&#38142;&#20132;&#26131;&#32467;&#26524;</text><polygon fill="#181818" points="520.5,1252.2109,510.5,1256.2109,520.5,1260.2109,516.5,1256.2109" style="stroke:#181818;stroke-width:1.0;"/><line style="stroke:#181818;stroke-width:1.0;" x1="514.5" x2="858.5" y1="1256.2109" y2="1256.2109"/><text fill="#000000" font-family="sans-serif" font-size="13" lengthAdjust="spacing" textLength="130" x="526.5" y="1251.145">&#21516;&#27493;&#36820;&#22238;&#19978;&#38142;&#20132;&#26131;&#32467;&#26524;</text><polygon fill="#181818" points="311.5,1281.3438,301.5,1285.3438,311.5,1289.3438,307.5,1285.3438" style="stroke:#181818;stroke-width:1.0;"/><line style="stroke:#181818;stroke-width:1.0;" x1="305.5" x2="508.5" y1="1285.3438" y2="1285.3438"/><text fill="#000000" font-family="sans-serif" font-size="13" lengthAdjust="spacing" textLength="130" x="317.5" y="1280.2778">&#21516;&#27493;&#36820;&#22238;&#19978;&#38142;&#20132;&#26131;&#32467;&#26524;</text><line style="stroke:#181818;stroke-width:1.0;" x1="300.5" x2="342.5" y1="1314.4766" y2="1314.4766"/><line style="stroke:#181818;stroke-width:1.0;" x1="342.5" x2="342.5" y1="1314.4766" y2="1327.4766"/><line style="stroke:#181818;stroke-width:1.0;" x1="301.5" x2="342.5" y1="1327.4766" y2="1327.4766"/><polygon fill="#181818" points="311.5,1323.4766,301.5,1327.4766,311.5,1331.4766,307.5,1327.4766" style="stroke:#181818;stroke-width:1.0;"/><text fill="#000000" font-family="sans-serif" font-size="13" lengthAdjust="spacing" textLength="195" x="307.5" y="1309.4106">&#25226;&#19978;&#38142;&#20132;&#26131;&#32467;&#26524;&#26356;&#26032;&#21040;&#34255;&#21697;&#25345;&#26377;&#34920;</text><rect fill="#EEEEEE" height="3" style="stroke:#EEEEEE;stroke-width:1.0;" width="1007.5" x="0" y="1356.043"/><line style="stroke:#000000;stroke-width:1.0;" x1="0" x2="1007.5" y1="1356.043" y2="1356.043"/><line style="stroke:#000000;stroke-width:1.0;" x1="0" x2="1007.5" y1="1359.043" y2="1359.043"/><rect fill="#EEEEEE" height="23.1328" style="stroke:#000000;stroke-width:2.0;" width="98" x="454.75" y="1345.4766"/><text fill="#000000" font-family="sans-serif" font-size="13" font-weight="bold" lengthAdjust="spacing" textLength="84" x="460.75" y="1361.5435">&#29992;&#25143;&#38144;&#27585;&#34255;&#21697;</text><polygon fill="#181818" points="288.5,1395.7422,298.5,1399.7422,288.5,1403.7422,292.5,1399.7422" style="stroke:#181818;stroke-width:1.0;"/><line style="stroke:#181818;stroke-width:1.0;" x1="22" x2="294.5" y1="1399.7422" y2="1399.7422"/><text fill="#000000" font-family="sans-serif" font-size="13" lengthAdjust="spacing" textLength="130" x="29" y="1394.6763">&#29992;&#25143;&#36827;&#34892;&#34255;&#21697;&#38144;&#27585;&#25805;&#20316;</text><polygon fill="#181818" points="497.5,1424.875,507.5,1428.875,497.5,1432.875,501.5,1428.875" style="stroke:#181818;stroke-width:1.0;"/><line style="stroke:#181818;stroke-width:1.0;" x1="300.5" x2="503.5" y1="1428.875" y2="1428.875"/><text fill="#000000" font-family="sans-serif" font-size="13" lengthAdjust="spacing" textLength="104" x="307.5" y="1423.8091">&#35843;&#29992;&#34255;&#21697;&#38144;&#27585;&#25509;&#21475;</text><polygon fill="#181818" points="847.5,1454.0078,857.5,1458.0078,847.5,1462.0078,851.5,1458.0078" style="stroke:#181818;stroke-width:1.0;"/><line style="stroke:#181818;stroke-width:1.0;" x1="509.5" x2="853.5" y1="1458.0078" y2="1458.0078"/><text fill="#000000" font-family="sans-serif" font-size="13" lengthAdjust="spacing" textLength="312" x="516.5" y="1452.9419">&#21019;&#24314;&#25805;&#20316;&#35760;&#24405;&#65292;&#36890;&#36807;delete&#35843;&#29992;avata &#36827;&#34892;&#65306;&#38144;&#27585;NFT</text><polygon fill="#181818" points="954,1483.1406,964,1487.1406,954,1491.1406,958,1487.1406" style="stroke:#181818;stroke-width:1.0;"/><line style="stroke:#181818;stroke-width:1.0;" x1="509.5" x2="960" y1="1487.1406" y2="1487.1406"/><text fill="#000000" font-family="sans-serif" font-size="13" lengthAdjust="spacing" textLength="169" x="516.5" y="1482.0747">&#21457;&#36865;&#34255;&#21697;&#38144;&#27585;&#25805;&#20316;&#25104;&#21151;&#30340;&#28040;&#24687;</text><polygon fill="#181818" points="311.5,1512.2734,301.5,1516.2734,311.5,1520.2734,307.5,1516.2734" style="stroke:#181818;stroke-width:1.0;"/><line style="stroke:#181818;stroke-width:1.0;" x1="305.5" x2="965" y1="1516.2734" y2="1516.2734"/><text fill="#000000" font-family="sans-serif" font-size="13" lengthAdjust="spacing" textLength="169" x="317.5" y="1511.2075">&#25509;&#25910;&#34255;&#21697;&#38144;&#27585;&#25805;&#20316;&#25104;&#21151;&#30340;&#28040;&#24687;</text><polygon fill="#181818" points="497.5,1541.4063,507.5,1545.4063,497.5,1549.4063,501.5,1545.4063" style="stroke:#181818;stroke-width:1.0;"/><line style="stroke:#181818;stroke-width:1.0;" x1="300.5" x2="503.5" y1="1545.4063" y2="1545.4063"/><text fill="#000000" font-family="sans-serif" font-size="13" lengthAdjust="spacing" textLength="104" x="307.5" y="1540.3403">&#26597;&#35810;&#19978;&#38142;&#20132;&#26131;&#32467;&#26524;</text><polygon fill="#181818" points="847.5,1570.5391,857.5,1574.5391,847.5,1578.5391,851.5,1574.5391" style="stroke:#181818;stroke-width:1.0;"/><line style="stroke:#181818;stroke-width:1.0;" x1="509.5" x2="853.5" y1="1574.5391" y2="1574.5391"/><text fill="#000000" font-family="sans-serif" font-size="13" lengthAdjust="spacing" textLength="256" x="516.5" y="1569.4731">&#36890;&#36807;get&#35843;&#29992;avata &#36827;&#34892;&#65306;&#26597;&#35810;&#19978;&#38142;&#20132;&#26131;&#32467;&#26524;</text><polygon fill="#181818" points="520.5,1599.6719,510.5,1603.6719,520.5,1607.6719,516.5,1603.6719" style="stroke:#181818;stroke-width:1.0;"/><line style="stroke:#181818;stroke-width:1.0;" x1="514.5" x2="858.5" y1="1603.6719" y2="1603.6719"/><text fill="#000000" font-family="sans-serif" font-size="13" lengthAdjust="spacing" textLength="130" x="526.5" y="1598.606">&#21516;&#27493;&#36820;&#22238;&#19978;&#38142;&#20132;&#26131;&#32467;&#26524;</text><polygon fill="#181818" points="311.5,1628.8047,301.5,1632.8047,311.5,1636.8047,307.5,1632.8047" style="stroke:#181818;stroke-width:1.0;"/><line style="stroke:#181818;stroke-width:1.0;" x1="305.5" x2="508.5" y1="1632.8047" y2="1632.8047"/><text fill="#000000" font-family="sans-serif" font-size="13" lengthAdjust="spacing" textLength="130" x="317.5" y="1627.7388">&#21516;&#27493;&#36820;&#22238;&#19978;&#38142;&#20132;&#26131;&#32467;&#26524;</text><line style="stroke:#181818;stroke-width:1.0;" x1="300.5" x2="342.5" y1="1661.9375" y2="1661.9375"/><line style="stroke:#181818;stroke-width:1.0;" x1="342.5" x2="342.5" y1="1661.9375" y2="1674.9375"/><line style="stroke:#181818;stroke-width:1.0;" x1="301.5" x2="342.5" y1="1674.9375" y2="1674.9375"/><polygon fill="#181818" points="311.5,1670.9375,301.5,1674.9375,311.5,1678.9375,307.5,1674.9375" style="stroke:#181818;stroke-width:1.0;"/><text fill="#000000" font-family="sans-serif" font-size="13" lengthAdjust="spacing" textLength="195" x="307.5" y="1656.8716">&#25226;&#19978;&#38142;&#20132;&#26131;&#32467;&#26524;&#26356;&#26032;&#21040;&#34255;&#21697;&#25345;&#26377;&#34920;</text></g></svg>